# xmcd
#
# Track frame offsets:
# 150
# 21684
# 38034
# 56714
# 70381
# 85667
# 113342
# 120626
# 140650
# 167525
# 176862
# 203387
#
# Disc length: 2935 seconds
#
#
# Revision: 0
# Processed by: cddbd v1.5.2PL0 Copyright (c) Steve Scherf et al.
# Submitted via: FreeRIP 2.53 
#
DISCID=a20b750c
DTITLE=Bob Seeley and Bob Baldori - Boogie Stomp!
DYEAR=2006
DGENRE=Boogie Woogie
TTITLE0=Boogie Stomp!
TTITLE1=Foot Pedal Boogie
TTITLE2=Honky Tonk Train
TTITLE3=6th Avenue Express
TTITLE4=The Fives
TTITLE5=St Louis Blues
TTITLE6=Hyper Inflation Boogie
TTITLE7=Suitcase Blues
TTITLE8=Okemos Breakdown
TTITLE9=Hot Kelly
TTITLE10=Amazing Grace
TTITLE11=Boogie Rocks
EXTD=SP6001 (Spirit Records)
EXTT0=
EXTT1=
EXTT2=
EXTT3=
EXTT4=
EXTT5=
EXTT6=
EXTT7=
EXTT8=
EXTT9=
EXTT10=
EXTT11=
PLAYORDER=
